<svg xmlns="http://www.w3.org/2000/svg" viewBox="0 0 50.3 23"><path d="M49.4 10.4c-.1-.8-.1-1.8-.3-2.6-.1-.6-.3-1.3-1.1-1.3h-.2-.2l-.1-.1c-.2-.7-1.2-1.5-2.5-2.5-.3-.2-.7-.5-.8-.7.1-.4 0-.9-.2-1.2-.1-.2-.4-.3-.8-.3h-.3c-.3 0-.9-.1-1.7-.3C39 1 35 .1 29 0c-8.8-.2-15.7 6.2-16 6.4l-.2.2c-.4.2-1.5.6-5 1.3-4.9 1-5.9 2.6-6.1 3.2-.4.3-1 1-1.1 1.8-.1.7-.3.9-.3.9l-.1.1v4.8c.3 1.2 1.5 1.9 3.7 1.9.7 0 1.2-.1 1.2-.1h.8c0-.1-.1-.3-.1-.4 0-.1-.1-.3-.1-.4-.1-.3-.1-.6-.1-1 0-2.9 2.3-5.2 5.2-5.2s5.2 2.3 5.2 5.2c0 .3 0 .5-.1.8 0 .1 0 .3-.1.4 0 .1-.1.3-.1.4 6.5-.1 14.7-.3 21.1-.5 0-.1 0-.3-.1-.4V19v-.3c0-2.9 2.3-5.2 5.2-5.2 2.8 0 5.1 2.3 5.2 5.1v.8c1.2-.2 2.1-.8 2.7-1.9.9-1.8.4-4.2.1-4.7-.4-.3-.4-1.4-.5-2.4z"/><path d="M6.6 20.3c.7 1.6 2.2 2.6 4 2.6 1.9 0 3.5-1.2 4.1-2.8.1-.1.1-.3.1-.4 0-.1.1-.3.1-.4 0-.3.1-.5.1-.8 0-2.4-2-4.4-4.4-4.4s-4.4 2-4.4 4.4c0 .3 0 .6.1 1 0 .1.1.3.1.4.1.2.2.3.2.4zM37.5 19.7c.5 1.9 2.2 3.3 4.3 3.3 2.2 0 3.9-1.6 4.3-3.6 0-.1 0-.3.1-.4v-.4c0-2.4-2-4.4-4.4-4.4s-4.4 2-4.4 4.4v.7c.1.1.1.2.1.4z"/></svg>