<svg xmlns="http://www.w3.org/2000/svg" viewBox="0 0 37.8 50"><path d="M32.4 13.6c-.1-.2-.1-.3-.2-.4l-1.4 3.1.3-.1c1.1-.4 1.7-1.6 1.3-2.6zM10.7 15.2s.1 0 0 0c.1 0 0 0 0 0zM11.5 11.8zM10.8 15c.4-1.9.7-2.9.7-3.2-.1.5-.5 2.1-.7 3.2zM11.5 11.8zM10.8 15.2V15v.2zM11.5 11.7zM11.5 11.8z"/><path d="M27.7 20.4l-6.9-.8-3.5-6.7c1.9 2.1 4.3 4.8 4.4 4.9l1.7.2 1.9-4.2-2.9 1 .1-.7c.4-1.6-.6-3.2-2.2-3.6 0 0-3.3-.7-4.8-1.1-1.3-.4-3.5.2-3.9 2.2-1.2 5.1-1.1 4.9-.8 3.5-.5 2.3-1.3 5.9-2.6 11.3L7 34.8.3 46.3c-.6 1.1-.3 2.5.8 3.2 1.1.6 2.5.3 3.2-.8l2-3.5c0-.2-.1-.4-.1-.6 0-1.2.8-2.3 1.9-2.6l3-5.2c.2-.3.3-.6.3-.9l1.2-8.5 1.6.4 2.3 5.3c1.8-4.1 2.5-5.5 3.4-7.7-.3 0-.1 0-1-.1-1.8-.2-3-1.6-3.2-2.5l-2-7.9c4.1 8 3.8 7.5 3.9 7.6.3.5.9.9 1.5.9l7.9.9c1.1.1 2.1-.7 2.2-1.8.4-1-.4-1.9-1.5-2.1zM11.5 11.7zM11.5 11.8c0-.1 0-.1 0 0 0-.1 0-.1 0 0z"/><g><path d="M22.5 35l-3.1 7.1h1.2c1 0 1.9.5 2.3 1.3-.3-8.3-.4-8.4-.4-8.4z"/></g><g><circle cx="19.8" cy="4.4" r="4.4"/></g><g><path d="M30.9 43.6c-.7-.2-1.4.2-1.6.9v.2c-.6-.2-1.2.1-1.4.7-.1.5 0 1 .4 1.3-.4.7-1.1 1.2-1.6 1.6-.1.1-.1.2-.1.3 0 .1.2.2.3.2 1.9-.1 3.1-.7 3.1-.7.6 0 1.1-.4 1.3-1 .1-.4 0-.8-.2-1.2.3-.2.5-.4.7-.8.2-.5-.2-1.3-.9-1.5z"/></g><g><path d="M31.1 8.2c-.6-.3-1.3 0-1.5.6l-4.2 9.4 2.4.3 3.9-8.8c.2-.5 0-1.2-.6-1.5z"/></g><g><path d="M21.3 45.9c.4-.2.6-.7.6-1.1 0-.7-.6-1.4-1.4-1.4h-3.8c.1-.3 7.5-16.8 7.7-17.4l-2.4-.3c-.3.6-7.6 17-7.9 17.7H9c-.7 0-1.4.6-1.4 1.4 0 .5.3 1 .7 1.2l-1 3.2c-.1.4.2.8.6.8h10.3v-2.6L19 50h2.7c.4 0 .7-.4.6-.8l-1-3.3z"/></g><g><path d="M37.8 44.5c0-.3-.1-.6-.3-.8.2-.2.3-.4.3-.7 0-.5-.4-1-.9-1s-1 .4-1 .9v.1c-.5 0-.9.3-.9.8 0 .4.2.7.6.8-.2.6-.6 1.1-.9 1.5-.1.1-.1.2 0 .3.1.1.2.1.3.1 1.4-.4 2.2-1.1 2.2-1.1.2 0 .5-.4.6-.9z"/></g></svg>