<svg xmlns="http://www.w3.org/2000/svg" viewBox="0 0 50 47.7"><path d="M32.9 37.5c0 .1 0 .1 0 0zM32.9 37.5s.1-.1.1-.2c0 .1 0 .2-.1.2z"/><path d="M9.1 8.8V4.5H0v40.9c0 2.3 2.5 2.3 2.5 2.3h45.2s2.3 0 2.3-2.3V4.5h-9.1v4.3c0 1.4-1.5 2.6-3.4 2.6h-2.3c-1.9 0-3.4-1.1-3.4-2.6V4.5H18.2v4.3c0 1.4-1.5 2.6-3.4 2.6h-2.3c-1.9 0-3.4-1.1-3.4-2.6zm11.4 32.1h-2.2V27.3h-4.6v-1.5c1.7-.1 2.8-.4 3.5-.7.7-.3 1.2-1.1 1.5-2.3h1.8v18.1zm14.9-3.3c-1 2.3-2.5 3.4-4.7 3.4-2 0-3.4-.9-4.4-2.8-.8-1.5-1.2-3.6-1.2-6.2 0-2 .2-3.7.7-5.2.9-2.7 2.5-4 4.9-4 2.1 0 3.7.9 4.6 2.8.7 1.5 1.1 3.5 1.1 6 0 2.4-.4 4.4-1 6zm10.1-23.9V16H4.6v-2.3h40.9z"/><path d="M30.8 25c-1.2 0-2.1.6-2.6 1.8-.6 1.2-.8 2.9-.8 5.2 0 1.7.2 3.1.5 4.2.5 1.6 1.5 2.4 2.8 2.4 1.1 0 1.9-.5 2.5-1.5s.9-2.8.9-5.5c0-1.9-.2-3.5-.7-4.8-.4-1.1-1.3-1.8-2.6-1.8zM38.6 6.9V2.3c0-1.3-1-2.3-2.3-2.3S34 1 34 2.3v4.5c0 1.3 1 2.3 2.3 2.3 1.3 0 2.3-1 2.3-2.2zM14.2 9.1c.9 0 1.7-.8 1.7-1.7V1.7c0-.9-.8-1.7-1.7-1.7h-1.1c-.9 0-1.7.8-1.7 1.7v5.7c0 .9.8 1.7 1.7 1.7h1.1z"/></svg>