<svg xmlns="http://www.w3.org/2000/svg" viewBox="0 0 39.2 50"><path d="M29.8 36.6c-.1.1-.2.2-.2.3-.3.9-1.1 1.5-2.1 1.5s-1.8-.6-2.1-1.5c0-.1-.1-.2-.2-.2s-.1-.1-.2-.1V43l2.5-2.5L30 43v-6.5c-.1 0-.1.1-.2.1z"/><path d="M27 0H0v50h39.2V12.2L27 0zm-6.1 19.2h5.8c.5 0 .8.4.8.8s-.4.8-.8.8h-5.8c-.5 0-.8-.4-.8-.8s.3-.8.8-.8zm-3.4.8c0 .2-.1.4-.2.6-.2.2-.4.3-.6.3s-.4-.1-.6-.2c-.2-.2-.2-.4-.2-.6s.1-.4.2-.6c.3-.3.9-.3 1.2 0 .1.1.2.3.2.5zm-9.1-7.5h7.5c.5 0 .8.4.8.8s-.4.8-.8.8H8.4c-.5 0-.8-.4-.8-.8s.3-.8.8-.8zm0 6.7h4.2c.5 0 .8.4.8.8s-.4.8-.8.8H8.4c-.5 0-.8-.4-.8-.8s.3-.8.8-.8zm-.6 6.9c.3-.3.9-.3 1.2 0 .2.2.2.4.2.6s-.1.4-.2.6c-.2.2-.4.2-.6.2s-.4-.1-.6-.2c-.2-.2-.2-.4-.2-.6-.1-.3 0-.5.2-.6zm2.1 13.7c0 .8-.9 1.1-1.4.6-.8-.7-1.6-1.3-2.3-2-.8-.7.4-1.9 1.2-1.2.3.3.7.6 1 .9.2-1.9.8-3.7 2.7-4.7 1-.5 1.8.9.8 1.4-1.9 1.1-2 3.2-2 5zm7.4-1.3c-.3-.5-1.5.5-1.9.6-.5.2-.9.2-1.4.2-1-.1-1.8-.7-2.2-1.6-.5-1 1-1.8 1.4-.8.8 1.6 2.1.2 3.3-.1.9-.2 1.8.1 2.2.9.6.9-.9 1.8-1.4.8zm1.1-11h-5.8c-.5 0-.8-.4-.8-.8 0-.5.4-.8.8-.8h5.8c.5 0 .8.4.8.8s-.4.8-.8.8zm15.2 5.4c-.2.1-.3.2-.3.3s-.1.2 0 .4c.3.7.3 1.5-.1 2.1-.3.5-.9.9-1.4 1V47l-4.2-4.2-4.2 4.2V36.7c-.6-.1-1.1-.5-1.4-1-.4-.6-.4-1.4-.1-2.1.1-.2 0-.4 0-.4 0-.1-.1-.2-.3-.3-.9-.3-1.5-1.1-1.5-2.1s.6-1.8 1.5-2.1c.2-.1.3-.2.3-.3s.1-.2 0-.4c-.3-.7-.3-1.5.1-2.1.6-.9 1.8-1.3 2.8-.8.2.1.6 0 .7-.3.3-.9 1.1-1.5 2.1-1.5s1.8.6 2.1 1.5c.1.3.5.4.7.3 1-.5 2.2-.1 2.8.8.4.6.4 1.4.1 2.1-.1.2 0 .4 0 .4 0 .1.1.2.3.3.9.3 1.5 1.1 1.5 2.1s-.7 1.8-1.5 2.1zM30 20c0-.2.1-.4.2-.6.3-.3.9-.3 1.2 0 .1.2.2.4.2.6s-.1.4-.2.6c-.2.2-.4.2-.6.2s-.4-.1-.6-.2c-.1-.2-.2-.4-.2-.6zm-5-7.5V.8l11.7 11.7H25z"/><path d="M33 30.3c-.6-.2-1.1-.7-1.3-1.2-.2-.6-.2-1.2 0-1.8.1-.2 0-.4 0-.5-.1-.2-.4-.3-.7-.2-.3.1-.6.2-.9.2-.9 0-1.8-.6-2.1-1.5-.1-.3-.4-.3-.5-.3s-.4 0-.5.4c-.3.9-1.1 1.5-2.1 1.5-.3 0-.6-.1-.9-.2-.3-.1-.5 0-.7.2-.1.1-.1.3 0 .5.3.6.3 1.2 0 1.8-.2.6-.7 1-1.3 1.2-.3.1-.4.4-.4.5s0 .4.4.5c.6.2 1.1.7 1.3 1.2.2.6.2 1.2 0 1.8-.1.2 0 .4 0 .5.1.2.3.3.6.2l.2-.1c.2-.1.5-.2.9-.2.9 0 1.8.6 2.1 1.5.1.3.4.4.5.4s.4 0 .5-.4c.3-.9 1.1-1.5 2.1-1.5.2 0 .3 0 .5.1h.1c.1 0 .2.1.3.1l.2.1c.2 0 .4-.1.5-.2.1-.1.1-.3 0-.5-.3-.6-.3-1.2 0-1.8.2-.6.7-1 1.3-1.2.3-.1.4-.4.4-.5s-.2-.5-.5-.6z"/></svg>