<svg xmlns="http://www.w3.org/2000/svg" width="18" height="15" viewBox="0 0 18 15"><defs><style>.cls-1{fill:#9fa3a7;fill-rule:evenodd}</style></defs><path id="Icon" class="cls-1" d="M1126.73 6864.62c.23.17.91.68 2.06 1.52s2.02 1.49 2.63 1.95c.07.04.21.15.43.32s.39.3.54.41.32.21.52.34a3.134 3.134 0 0 0 .58.29 1.606 1.606 0 0 0 .5.09h.02a1.606 1.606 0 0 0 .5-.09 3.134 3.134 0 0 0 .58-.29c.2-.13.38-.24.52-.34s.33-.24.54-.41.36-.28.43-.32c.62-.46 2.18-1.61 4.7-3.47a4.949 4.949 0 0 0 1.23-1.31 2.919 2.919 0 0 0 .49-1.61 1.66 1.66 0 0 0-.48-1.2 1.483 1.483 0 0 0-1.13-.5h-14.78a1.38 1.38 0 0 0-1.19.55 2.231 2.231 0 0 0-.42 1.39 2.56 2.56 0 0 0 .55 1.45 5.161 5.161 0 0 0 1.18 1.23zm15.27 1.14c-2.2 1.58-3.87 2.8-5.01 3.68-.38.3-.69.53-.93.7a6.108 6.108 0 0 1-.95.51 2.786 2.786 0 0 1-1.1.26h-.02a2.87 2.87 0 0 1-1.11-.26 6.431 6.431 0 0 1-.94-.51c-.24-.17-.55-.4-.93-.7-.91-.7-2.57-1.93-5-3.68a5.558 5.558 0 0 1-1.01-.92v8.46a1.71 1.71 0 0 0 .47 1.2 1.54 1.54 0 0 0 1.14.5h14.78a1.54 1.54 0 0 0 1.14-.5 1.71 1.71 0 0 0 .47-1.2v-8.46a5.494 5.494 0 0 1-1 .92z" transform="translate(-1125 -6860)"/></svg>