<svg xmlns="http://www.w3.org/2000/svg" viewBox="0 0 50 49.9"><path d="M22.5 28.1c1-.7 1.9-1.5 2.7-2.4l2.9 1.8 2.6-4.8-2.9-1.8c.4-1.2.6-2.4.6-3.7l3.2-.6-.9-5.5-3.2.6c-.4-1.2-1-2.3-1.8-3.3l2.1-2.7-4-3.6-2.1 2.7c-1-.6-2.2-1-3.3-1.3V0h-5.2v3.5c-1.2.3-2.3.7-3.3 1.3L7.8 2.1l-4 3.6 2.1 2.7c-.7 1-1.3 2.1-1.8 3.3l-3.2-.6-.9 5.5 3.2.6c0 1.3.3 2.6.6 3.7L.9 22.7l2.6 4.8 2.9-1.8c.8.9 1.7 1.8 2.7 2.4L8 31.4l4.9 1.9L14 30c.6.1 1.2.1 1.8.1s1.2 0 1.8-.1l1.1 3.3 4.9-1.9-1.1-3.3zm-6.7-4.4c-3.7 0-6.6-3.2-6.6-7.1 0-3.9 3-7.1 6.6-7.1 3.7 0 6.6 3.2 6.6 7.1 0 4-2.9 7.1-6.6 7.1zM44.8 32.3l-2.2.8c-.4-.8-1-1.5-1.6-2.1l1.3-2.1-3.2-2.1-1.3 2.1c-.8-.3-1.6-.5-2.5-.6l-.3-2.5-3.7.5.3 2.5c-.8.3-1.6.7-2.2 1.3l-1.8-1.7-2.5 3 1.8 1.7c-.4.8-.7 1.6-1 2.5l-2.4-.1-.1 4 2.4.1c.1.9.4 1.8.8 2.6l-1.9 1.5 2.3 3.1 1.9-1.6c.6.6 1.4 1.1 2.2 1.4l-.5 2.5 3.6.8.5-2.5c.4 0 .8 0 1.3-.1l1.2-.3 1.1 2.2 3.3-1.9-1.1-2.2c.7-.6 1.2-1.3 1.7-2l2.2.9 1.4-3.7-2.2-.9c.1-.9.2-1.8.1-2.7l2.2-.8-1.1-3.6zm-9.4 10.6c-2.6.4-5-1.6-5.4-4.3-.4-2.8 1.5-5.3 4.1-5.7s5 1.6 5.4 4.3c.3 2.7-1.5 5.3-4.1 5.7zM49.9 18.5l.1-3.1-1.9-.1c-.1-.7-.3-1.4-.6-2l1.5-1.2-1.8-2.5-1.5 1.2c-.5-.5-1.1-.8-1.7-1.1l.4-1.9-2.9-.6-.4 1.9c-.7 0-1.3.1-2 .3l-.9-1.8-2.6 1.5.9 1.8c-.5.5-1 1-1.3 1.6l-1.7-.7-1.1 2.9 1.7.7c-.1.7-.1 1.4-.1 2.1l-1.8.6.9 3 1.8-.6c.3.6.8 1.2 1.2 1.7l-1 1.7 2.5 1.7 1-1.7c.6.2 1.3.4 2 .4l.3 2 2.9-.5-.3-2c.3-.1.6-.3.9-.4l.9-.6 1.4 1.3 2-2.3-1.4-1.3c.3-.6.6-1.3.7-2h1.9zm-7.1 1.6c-1.8 1-4.1.3-5.1-1.6-1-1.9-.3-4.4 1.5-5.4s4.1-.3 5.1 1.6c1.1 2 .4 4.4-1.5 5.4z"/></svg>