<svg xmlns="http://www.w3.org/2000/svg" viewBox="0 0 49 49"><path d="M24.5 11.7c3.2 0 5.9-2.6 5.9-5.9S27.7 0 24.5 0s-5.9 2.6-5.9 5.9 2.7 5.8 5.9 5.8zM25.7 13.6c-.1-.1-.3-.2-.5-.2h-1.4c-.2 0-.4.1-.5.2-.2.2-.2.5-.1.8l.8 1.2-.4 3 .7 1.9c.1.2.3.2.4 0l.7-1.9-.4-3 .8-1.2c.2-.2.1-.6-.1-.8z"/><path d="M15.5 27.1h18c.5 0 .8-.4.8-.8v-7.5c0-2.2-1.4-4.1-3.5-4.8l-1.6-.5c-.3-.1-.6.1-.7.4l-3.9 10.8-3.9-10.8c-.1-.2-.3-.4-.6-.4h-.2l-1.7.5c-2.1.7-3.5 2.7-3.5 4.8v7.5c-.1.5.3.8.8.8zM5.7 14.7c3.2 0 5.9-2.6 5.9-5.9C11.6 5.6 9 3 5.7 3S-.2 5.6-.2 8.9c.1 3.2 2.7 5.8 5.9 5.8z"/><path d="M15.7 30.8H11v-9.2c0-2.9-2.4-5.3-5.3-5.3S.4 18.7.4 21.6v12.5c0 2.8 2.3 5.1 5.1 5.1h6.1v8.3c0 .8.6 1.4 1.4 1.4h5.6c.8 0 1.4-.6 1.4-1.4V35.2c.1-2.4-1.9-4.4-4.3-4.4zM43.3 14.7c3.2 0 5.9-2.6 5.9-5.9 0-3.2-2.6-5.9-5.9-5.9-3.2 0-5.9 2.6-5.9 5.9 0 3.3 2.6 5.9 5.9 5.9zM43.3 16.3c-2.9 0-5.3 2.4-5.3 5.3v9.2h-4.7c-2.4 0-4.3 1.9-4.3 4.3v12.4c0 .8.6 1.4 1.4 1.4H36c.8 0 1.4-.6 1.4-1.4v-8.3h6.1c2.8 0 5.1-2.3 5.1-5.1V21.6c0-2.9-2.4-5.3-5.3-5.3z"/></svg>