<svg xmlns="http://www.w3.org/2000/svg" viewBox="0 0 59.3 50"><path d="M38 24.3c-4.5-7.8-4.3-17 0-24.3-4.2 0-8.4 1-12.3 3.2C17.3 8 12.9 16.9 13.4 25.9c2 .1 3.9.8 5.3 2 1.4-.8 3-1.2 4.6-1.2 4.4 0 8.2 2.9 9.4 7 3.1.9 5.3 3.8 5.3 7.1 0 3.5-2.5 6.4-5.7 7.2 5.8 1.3 12.2.6 17.8-2.6 3.9-2.2 6.9-5.3 9-8.9-8.3-.1-16.5-4.4-21.1-12.2z"/><path d="M36.2 40.8c0-2.8-2.1-5.1-5-5.4-.5-3.8-3.7-6.7-7.6-6.7-1.9 0-3.6.7-5 1.8-1.3-1.6-3.2-2.6-5.5-2.6-3.3 0-6.1 2.3-6.8 5.3C2.8 33.4 0 36.4 0 40c0 3.8 3.1 6.8 6.9 6.8.8 0 1.5-.2 2.3-.4 1.3 1.7 3.3 2.8 5.6 2.8 1.4 0 2.7-.4 3.8-1.1 1.2 1.2 3 1.9 4.9 1.9 2.7 0 5.1-1.6 6.2-3.9.4.1.7.1 1.1.1 2.9 0 5.4-2.4 5.4-5.4zM51.2 27.3l1-2.1 2.3-.4-1.7-1.6.3-2.3-2 1.1-2.2-1 .5 2.3-1.7 1.7 2.4.2zM3.9 21.6l1.7-.9 1.6.9-.2-1.8 1.3-1.3-1.8-.3-.8-1.7-1 1.7-1.7.2 1.3 1.3zM42.2 17.4l.8 1.4.6-1.4 1.6-.3-1.1-1.1.2-1.6-1.4.8-1.6-.7.4 1.6-1.2 1.1zM49.9 13.2l.4.9.5-.9 1-.2-.7-.7.1-1-.9.5-.9-.4.2 1-.7.7zM14.4 7.3l.4.9.5-.9 1-.2-.7-.6.1-1-.9.5-.9-.5.2 1-.7.7z"/></svg>