<svg xmlns="http://www.w3.org/2000/svg" viewBox="0 0 49 49"><circle cx="24.5" cy="24.5" r="4.2"/><path d="M48 20.3l-5.9-1.1c-.4-1.2-.8-2.3-1.4-3.4l3.4-5c.3-.5.3-1.2-.1-1.6L39.8 5c-.4-.4-1.1-.5-1.6-.1l-5 3.4c-1.1-.6-2.3-1.1-3.5-1.4L28.6 1c-.1-.6-.6-1-1.2-1h-6c-.6 0-1.1.4-1.2 1l-1.1 5.9c-1.2.4-2.3.8-3.4 1.4L10.8 5c-.5-.3-1.2-.3-1.6.1L5 9.3c-.4.4-.5 1.1-.1 1.6l3.4 5c-.6 1.1-1 2.2-1.4 3.4l-5.9 1c-.5.1-1 .6-1 1.2v6c0 .6.4 1.1 1 1.2l5.9 1.1c.4 1.2.8 2.4 1.4 3.4L5 38.1c-.3.5-.3 1.2.1 1.6l4.2 4.2c.4.4 1.1.5 1.6.1l4.9-3.4c1.1.6 2.2 1 3.3 1.4l1.1 5.9c.1.6.6 1 1.2 1h6c.6 0 1.1-.4 1.2-1l1.1-5.9c1.2-.4 2.4-.8 3.5-1.4l5 3.4c.5.3 1.2.3 1.6-.1l4.2-4.2c.4-.4.5-1.1.1-1.6l-3.4-4.9c.6-1.1 1.1-2.3 1.4-3.5l5.9-1.1c.5-.1 1-.6 1-1.2v-6c0-.4-.4-1-1-1.1zM24.5 34.7c-5.6 0-10.2-4.6-10.2-10.2s4.6-10.2 10.2-10.2 10.2 4.6 10.2 10.2-4.6 10.2-10.2 10.2z"/></svg>