<svg id="Layer_1" xmlns="http://www.w3.org/2000/svg" viewBox="0 0 17 17"><style>.st0{fill:#9fa3a7}</style><path class="st0" d="M8.5 0c-3 0-6.1.5-7.2 1.6C.4 2.5.1 4.1 0 5.1v.1c0 .4.3.8.7.8 0 0 1.7-.1 2.8-.2h.1c.4 0 .7-.3.7-.7V3.7c0-.4.4-.8.8-.8H12c.4 0 .8.3.8.8v1.4c0 .4.3.7.7.7h.1c1 .1 2.7.2 2.8.2.3 0 .6-.4.6-.8v-.1c-.1-1-.4-2.6-1.3-3.5C14.6.5 11.5 0 8.5 0zm0 9.2c-.8 0-1.4.6-1.4 1.4 0 .8.6 1.4 1.4 1.4s1.4-.6 1.4-1.4c0-.8-.6-1.4-1.4-1.4zM7.4 6v-.9c0-.5-.4-.9-.9-.9s-.8.4-.8.9V6L.9 11.1c-.3.3-.5.8-.5 1.3v1.4c0 .8.6 1.4 1.4 1.4h.4v.9c-.1.5.3.9.8.9s.9-.4.9-.9v-.9h9.2v.9c0 .5.4.9.9.9s.9-.4.9-.9v-.9h.4c.8 0 1.4-.6 1.4-1.4v-1.4c0-.5-.2-.9-.5-1.3L11.3 6v-.9c0-.5-.4-.9-.9-.9s-.9.4-.9.9V6H7.4zm1.1 1.8c1.6 0 2.8 1.3 2.8 2.8 0 1.6-1.3 2.8-2.8 2.8-1.6 0-2.8-1.3-2.8-2.8 0-1.5 1.2-2.8 2.8-2.8z"/></svg>