<svg xmlns="http://www.w3.org/2000/svg" viewBox="0 0 50 49.9"><path d="M38.9 17.5c-6.2 0-11.2 5-11.2 11.2 0 4.5 2.7 8.4 6.5 10.2.1.2.1.4.2.6H12.8V29.4c.9-2 2.3-5.1 3.1-8 3.8-1.8 6.5-5.7 6.5-10.2C22.4 5 17.4 0 11.2 0S0 5 0 11.2c0 4.5 2.7 8.4 6.5 10.2.8 2.8 2.2 6 3.1 7.9v13.2h25.8c1.2 3 2.5 5.6 2.7 6.1l.7 1.3.7-1.3c.4-.7 2.8-5.6 4-9.8C47.3 37 50 33.1 50 28.6c.1-6.1-4.9-11.1-11.1-11.1zM7.6 11.2c0-2.1 1.7-3.7 3.7-3.7 2.1 0 3.7 1.7 3.7 3.7 0 2.1-1.7 3.7-3.7 3.7-2.1.1-3.7-1.6-3.7-3.7zm31.3 21.2c-2.1 0-3.7-1.7-3.7-3.7 0-2.1 1.7-3.7 3.7-3.7s3.7 1.7 3.7 3.7c0 2.1-1.6 3.7-3.7 3.7z"/></svg>