<svg xmlns="http://www.w3.org/2000/svg" viewBox="0 0 43.7 45"><path d="M25.1 2.8v6.4h6.3z"/><path d="M19.8 41.1l3.7-12.2 10.7-10.7v-6.6H23.9c-.6 0-1.2-.5-1.2-1.2V0h-23v45h34.6v-9.8l-3.6 3.6-10.9 2.3zM4.9 6.6h14.4c.6 0 1.2.5 1.2 1.2S20 9 19.4 9H4.9c-.6 0-1.1-.5-1.1-1.2s.5-1.2 1.1-1.2zm0 7.1h14.4c.6 0 1.2.5 1.2 1.2s-.5 1.2-1.2 1.2H4.9c-.6 0-1.2-.5-1.2-1.2.1-.6.6-1.2 1.2-1.2zm0 9.4c-.6 0-1.2-.5-1.2-1.2 0-.6.5-1.2 1.2-1.2h14.4c.6 0 1.2.5 1.2 1.2 0 .6-.5 1.2-1.2 1.2H4.9z"/><path d="M38.5 17.2L26.4 29.3l5.2 5.2 12.1-12.1zM29.5 35.7l-4.3-4.3-1.9 6.2z"/></svg>