<svg xmlns="http://www.w3.org/2000/svg" viewBox="0 0 50 50.1"><path d="M27.9 8.9H10.8c-1.2 0-2.3 1-2.3 2.3s1 2.3 2.3 2.3h17.1c1.3 0 2.3-1 2.3-2.3-.1-1.3-1.1-2.3-2.3-2.3zM30.1 19.7c0-1.3-1-2.3-2.3-2.3h-17c-1.3 0-2.3 1-2.3 2.3s1 2.3 2.3 2.3h17.1c1.2 0 2.2-1 2.2-2.3zM19.3 30.5c1.3 0 2.3-1 2.3-2.3s-1-2.3-2.3-2.3h-8.5c-1.3 0-2.3 1-2.3 2.3s1 2.3 2.3 2.3h8.5z"/><path d="M36.5 38.2l-2.4 1.6v5.7H4.6v-41h29.6v9l4.6-7.9V2.3c0-1.3-1-2.3-2.3-2.3H2.3C1 0 0 1 0 2.3v45.5c0 1.3 1 2.3 2.3 2.3h34.1c1.3 0 2.3-1 2.3-2.3V35.2l-1.1 1.9c-.3.4-.6.8-1.1 1.1z"/><path d="M50 10.5c0-.2-.5-2-3.4-3.7s-4.7-1.2-4.9-1.1c-.3.1-.5.3-.6.5L26.8 30.8c-.1.2-.1.3-.2.5l-.5 8.9c0 .4.2.8.6 1.1.4.2.8.2 1.2 0l7.4-4.9c.1-.1.3-.2.4-.4l14.1-24.7c.2-.2.2-.5.2-.8zM30.7 37.3c-.4-.3-.8-.6-1.3-.9-.5-.3-.9-.5-1.4-.7l.2-2.7c.6.1 1.5.3 2.6 1 1.1.6 1.8 1.3 2.1 1.8l-2.2 1.5zM15.9 41c.1.5.6.6 1 .7.3.1.7-.1 1-.3 1.7-.8 4.1.1 5.9.1 1.1 0 1.1-1.7 0-1.7-2.2 0-4-.5-6.1-.2 0-.1 0-.3-.2-.5-.4-.7-.9-.9-1.4-.8 0-.1-.1-.2-.1-.2-.1-.2-.3-.3-.5-.4.6-1 1-2.2.6-3-.1-.3-.5-.4-.7-.4-1.1 0-2.1 1.2-2.9 1.9-1.8 1.8-3.4 3.8-5 5.9-.7.9.8 1.7 1.5.9 1.4-1.8 2.9-3.5 4.4-5.2l-1.2 1.8c-.6.9.8 1.7 1.5.9.2-.2.3-.4.5-.5 0 .1-.1.2-.1.3 0 .1-.1.1-.1.2-.4 1 1 1.4 1.6.7.1-.2.3-.4.4-.6-.2 0-.2.2-.1.4z"/></svg>