<svg xmlns="http://www.w3.org/2000/svg" viewBox="0 0 49 35"><path d="M50 29.4V13.6c0-.2 0-.4-.1-.6.1 0 .2 0 .3-.1C48.9 5.5 42.7 0 35.3 0 27 0 20.2 7.1 20.2 15.8v11.4H-.4v-2.5c0-.3-.2-.5-.5-.5s-.5.2-.5.5v9.8c0 .2.2.4.4.5H45.4c2.8 0 5.1-2.3 5.1-5.1v-.5H50zM-.1 34v-5.7h1.8v2.8H2v-2.8h.6v1.6H3v-1.6h.8v1.6h.3v-1.6h.8v1.6h.3v-1.6H6v1.6h.3v-1.6H7v2.8h.3v-2.8H8v1.6h.3v-1.6h.8v1.6h.3v-1.6h.8v1.6h.3v-1.6h.8v1.6h.3v-1.6h.8v2.8h.3v-2.8h.6v1.6h.3v-1.6h.8v1.6h.3v-1.6h.8v1.6h.5v-1.6h.8v1.6h.3v-1.6h.6v2.8h.3v-2.8h2.1V30c0 1.7.8 3.1 2 4.1L-.1 34zm35-24.8c3.5 0 6.4 2.8 6.4 6.4 0 3.5-2.9 6.4-6.4 6.4s-6.4-2.8-6.4-6.4c.1-3.6 2.9-6.4 6.4-6.4zm-9 21.2h-.7v-2.1h.7v2.1zm18.5 0H26.9v-2.9h17.4v2.9zM40 3.5l.7-1.6c.2.1 5.7 2.7 7.2 7.4l-1.7.5C45 5.8 40 3.5 40 3.5zm9.2 25.6c-1.3-.7-2.4-2.4-3-4.7v-6.6c.5-2.2 1.6-3.9 2.9-4.6 0 .1.1.2.1.4v15.5zm-1.5-11c-.7 0-1.1 1.5-1.1 2.9s.4 2.9 1.1 2.9c.7 0 1.1-1.5 1.1-2.9s-.4-2.9-1.1-2.9zm0 5.6c-.4 0-.8-1.1-.8-2.7s.4-2.7.8-2.7.8 1.1.8 2.7c.1 1.6-.4 2.7-.8 2.7zm.1-4.7s.3.3.4 1.3h-.3c-.1-.9-.3-1.1-.3-1.1l.2-.2zm-15.5-3.5c0-1.4 1.2-2.6 2.6-2.6 1.4 0 2.6 1.2 2.6 2.6 0 1.4-1.2 2.6-2.6 2.6-1.4 0-2.6-1.1-2.6-2.6z"/></svg>