<svg xmlns="http://www.w3.org/2000/svg" viewBox="0 0 47 47"><path d="M19.9 24.8c0 1.3-1.1 2.4-2.4 2.4-1.3 0-2.4-1.1-2.4-2.4 0-1.3 1.1-2.4 2.4-2.4 1.3 0 2.4 1.1 2.4 2.4zm9.6-2.4c-1.3 0-2.4 1.1-2.4 2.4s1.1 2.4 2.4 2.4c1.3 0 2.4-1.1 2.4-2.4-.1-1.3-1.1-2.4-2.4-2.4zm10 9.6v-.3c-.3.8-.6 1.5-.9 2.3.1.4.2 1.1.4 1.8 1 1.5 3.7 3.4 5.6 3.9-1 .4-2.2.6-3.4.4 1.1 1.4 2.6 2.6 4.8 3.3-5 4.5-13.3 4.6-19.1 1.1-1.1.3-2.2.5-3.3.5-1 0-2.1-.2-3.3-.5-5.9 3.5-14.1 3.4-19.2-1.1 2.2-.8 3.7-2 4.8-3.4-1 0-1.9-.1-2.7-.5 1.4-.4 3.2-1.5 4.5-2.6.4-1.2.7-2.2.8-2.9-.3-.7-.7-1.5-.9-2.3v.3h-3C2.4 32 .5 30.2.5 27.9v-4.5c0-1.5.9-2.9 2.1-3.6 0-6.4 1.9-11.3 5.5-14.7C11.8 1.7 16.9 0 23.5 0s11.7 1.7 15.3 5.1c3.6 3.4 5.5 8.4 5.5 14.7 1.3.7 2.1 2 2.1 3.6v4.5c0 2.2-1.8 4.1-4.1 4.1h-2.8zm-1.7-7.2c0-1-.1-2-.1-3-1.8-1.7-5.2-2.9-9.4-3.4.7.6 1.2 1.4 1.6 2.6-2.5-1.8-7.6-2.4-9.3-4.3-2.7-1.8-3.4-4.4-3.5-3.3-.1 5.1-3.7 9.1-7.8 9.7v1.7c0 2.2.4 4.1 1 5.9 2.3 2.7 6 3.5 9.3 3.7.6-1 2-1.7 3.6-1.7 2.2 0 4 1.3 4 2.8 0 1.5-1.8 2.8-4 2.8-1.7 0-3.1-.7-3.7-1.8-2.3-.1-4.9-.5-7.1-1.6 3.2 4.7 8.1 7.2 11.2 7.2 4.8.1 14.2-6.1 14.2-17.3zm2.5-5.4h1.6c-.3-11.1-6.6-17-18.4-17S5.4 8.3 5.2 19.4h1.6c.6-3.7 1.8-6.8 3.6-9.2 2.9-3.8 7.4-5.7 13.2-5.7s10.2 1.9 13.2 5.7c1.7 2.4 2.9 5.4 3.5 9.2z"/></svg>