<?xml version="1.0" encoding="utf-8"?>
<!-- Generator: Adobe Illustrator 21.0.0, SVG Export Plug-In . SVG Version: 6.00 Build 0)  -->
<svg version="1.1" id="Capa_1" xmlns="http://www.w3.org/2000/svg" xmlns:xlink="http://www.w3.org/1999/xlink" x="0px" y="0px"
	 viewBox="0 0 50.3 23" style="enable-background:new 0 0 50.3 23;" xml:space="preserve">
<g>
	<g>
		<path d="M49.4,10.4c-0.1-0.8-0.1-1.8-0.3-2.6C49,7.2,48.8,6.5,48,6.5c-0.1,0-0.2,0-0.2,0s-0.1,0-0.2,0c0,0,0,0-0.1-0.1
			c-0.2-0.7-1.2-1.5-2.5-2.5c-0.3-0.2-0.7-0.5-0.8-0.7c0.1-0.4,0-0.9-0.2-1.2c-0.1-0.2-0.4-0.3-0.8-0.3c-0.1,0-0.1,0-0.3,0
			c-0.3,0-0.9-0.1-1.7-0.3C39,1,35,0.1,29,0c-8.8-0.2-15.7,6.2-16,6.4l-0.2,0.2c-0.4,0.2-1.5,0.6-5,1.3c-4.9,1-5.9,2.6-6.1,3.2
			c-0.4,0.3-1,1-1.1,1.8c-0.1,0.7-0.3,0.9-0.3,0.9l-0.1,0.1v4.7v0.1c0.3,1.2,1.5,1.9,3.7,1.9c0.7,0,1.2-0.1,1.2-0.1s0.3,0,0.8,0
			c0-0.1-0.1-0.3-0.1-0.4c0-0.1-0.1-0.3-0.1-0.4c-0.1-0.3-0.1-0.6-0.1-1c0-2.9,2.3-5.2,5.2-5.2s5.2,2.3,5.2,5.2c0,0.3,0,0.5-0.1,0.8
			c0,0.1,0,0.3-0.1,0.4c0,0.1-0.1,0.3-0.1,0.4c6.5-0.1,14.7-0.3,21.1-0.5c0-0.1,0-0.3-0.1-0.4c0-0.1,0-0.3,0-0.4c0-0.1,0-0.2,0-0.3
			c0-2.9,2.3-5.2,5.2-5.2c2.8,0,5.1,2.3,5.2,5.1v0.1c0,0.1,0,0.2,0,0.3s0,0.3,0,0.4c1.2-0.2,2.1-0.8,2.7-1.9
			c0.9-1.8,0.4-4.2,0.1-4.7C49.5,12.5,49.5,11.4,49.4,10.4z"/>
		<path d="M6.6,20.3c0.7,1.6,2.2,2.6,4,2.6c1.9,0,3.5-1.2,4.1-2.8c0.1-0.1,0.1-0.3,0.1-0.4c0-0.1,0.1-0.3,0.1-0.4
			c0-0.3,0.1-0.5,0.1-0.8c0-2.4-2-4.4-4.4-4.4s-4.4,2-4.4,4.4c0,0.3,0,0.6,0.1,1c0,0.1,0.1,0.3,0.1,0.4C6.5,20.1,6.6,20.2,6.6,20.3z
			"/>
		<path d="M37.5,19.7c0.5,1.9,2.2,3.3,4.3,3.3c2.2,0,3.9-1.6,4.3-3.6c0-0.1,0-0.3,0.1-0.4c0-0.1,0-0.3,0-0.4l0,0
			c0-2.4-2-4.4-4.4-4.4s-4.4,2-4.4,4.4c0,0.1,0,0.2,0,0.3s0,0.3,0,0.4C37.5,19.4,37.5,19.5,37.5,19.7z"/>
	</g>
</g>
</svg>
