<?xml version="1.0" encoding="utf-8"?>
<!-- Generator: Adobe Illustrator 21.0.0, SVG Export Plug-In . SVG Version: 6.00 Build 0)  -->
<svg version="1.1" id="Layer_1" xmlns="http://www.w3.org/2000/svg" xmlns:xlink="http://www.w3.org/1999/xlink" x="0px" y="0px"
	 viewBox="0 0 37.8 50" style="enable-background:new 0 0 37.8 50;" xml:space="preserve">
<g>
	<g>
		<path d="M32.4,13.6c-0.1-0.2-0.1-0.3-0.2-0.4l-1.4,3.1l0.3-0.1C32.2,15.8,32.8,14.6,32.4,13.6z"/>
	</g>
</g>
<g>
	<g>
		<g>
			<path d="M10.7,15.2C10.7,15.2,10.8,15.2,10.7,15.2C10.8,15.2,10.7,15.2,10.7,15.2z"/>
			<path d="M11.5,11.8L11.5,11.8L11.5,11.8z"/>
			<path d="M10.8,15c0.4-1.9,0.7-2.9,0.7-3.2C11.4,12.3,11,13.9,10.8,15z"/>
			<path d="M11.5,11.8L11.5,11.8L11.5,11.8z"/>
			<path d="M10.8,15.2c0-0.1,0-0.1,0-0.2C10.8,15.1,10.8,15.1,10.8,15.2z"/>
			<path d="M11.5,11.7L11.5,11.7L11.5,11.7z"/>
			<path d="M11.5,11.8L11.5,11.8L11.5,11.8z"/>
			<path d="M27.7,20.4l-6.9-0.8l-3.5-6.7c1.9,2.1,4.3,4.8,4.4,4.9l1.7,0.2l1.9-4.2l-2.9,1l0.1-0.7c0.4-1.6-0.6-3.2-2.2-3.6
				c0,0-3.3-0.7-4.8-1.1C14.2,9,12,9.6,11.6,11.6c-1.2,5.1-1.1,4.9-0.8,3.5c-0.5,2.3-1.3,5.9-2.6,11.3l0,0L7,34.8L0.3,46.3
				c-0.6,1.1-0.3,2.5,0.8,3.2c1.1,0.6,2.5,0.3,3.2-0.8l2-3.5c0-0.2-0.1-0.4-0.1-0.6c0-1.2,0.8-2.3,1.9-2.6l3-5.2
				c0.2-0.3,0.3-0.6,0.3-0.9l1.2-8.5l1.6,0.4l2.3,5.3c1.8-4.1,2.5-5.5,3.4-7.7c-0.3,0-0.1,0-1-0.1c-1.8-0.2-3-1.6-3.2-2.5l-2-7.9
				c4.1,8,3.8,7.5,3.9,7.6c0.3,0.5,0.9,0.9,1.5,0.9l7.9,0.9c1.1,0.1,2.1-0.7,2.2-1.8C29.6,21.5,28.8,20.6,27.7,20.4z"/>
			<path d="M11.5,11.7L11.5,11.7L11.5,11.7z"/>
			<path d="M11.5,11.8C11.5,11.7,11.5,11.7,11.5,11.8C11.5,11.7,11.5,11.7,11.5,11.8z"/>
		</g>
	</g>
</g>
<g>
	<g>
		<path d="M22.5,35l-3.1,7.1h1.2c1,0,1.9,0.5,2.3,1.3C22.6,35.1,22.5,35,22.5,35z"/>
	</g>
</g>
<g>
	<g>
		<circle cx="19.8" cy="4.4" r="4.4"/>
	</g>
</g>
<g>
	<g>
		<path d="M30.9,43.6c-0.7-0.2-1.4,0.2-1.6,0.9c0,0.1,0,0.1,0,0.2l0,0c-0.6-0.2-1.2,0.1-1.4,0.7c-0.1,0.5,0,1,0.4,1.3
			c-0.4,0.7-1.1,1.2-1.6,1.6c-0.1,0.1-0.1,0.2-0.1,0.3c0,0.1,0.2,0.2,0.3,0.2c1.9-0.1,3.1-0.7,3.1-0.7l0,0c0.6,0,1.1-0.4,1.3-1
			c0.1-0.4,0-0.8-0.2-1.2c0.3-0.2,0.5-0.4,0.7-0.8C32,44.6,31.6,43.8,30.9,43.6z"/>
	</g>
</g>
<g>
	<g>
		<path d="M31.1,8.2c-0.6-0.3-1.3,0-1.5,0.6l-4.2,9.4l2.4,0.3l3.9-8.8C31.9,9.2,31.7,8.5,31.1,8.2z"/>
	</g>
</g>
<g>
	<g>
		<path d="M21.3,45.9c0.4-0.2,0.6-0.7,0.6-1.1c0-0.7-0.6-1.4-1.4-1.4h-3.8c0.1-0.3,7.5-16.8,7.7-17.4L22,25.7
			c-0.3,0.6-7.6,17-7.9,17.7H9c-0.7,0-1.4,0.6-1.4,1.4c0,0.5,0.3,1,0.7,1.2l-1,3.2C7.2,49.6,7.5,50,7.9,50h10.3v-2.6L19,50h2.7
			c0.4,0,0.7-0.4,0.6-0.8L21.3,45.9z"/>
	</g>
</g>
<g>
	<g>
		<path d="M37.8,44.5c0-0.3-0.1-0.6-0.3-0.8c0.2-0.2,0.3-0.4,0.3-0.7c0-0.5-0.4-1-0.9-1s-1,0.4-1,0.9V43l0,0c-0.5,0-0.9,0.3-0.9,0.8
			c0,0.4,0.2,0.7,0.6,0.8c-0.2,0.6-0.6,1.1-0.9,1.5c-0.1,0.1-0.1,0.2,0,0.3c0.1,0.1,0.2,0.1,0.3,0.1c1.4-0.4,2.2-1.1,2.2-1.1l0,0
			C37.4,45.4,37.7,45,37.8,44.5z"/>
	</g>
</g>
</svg>
