<?xml version="1.0" encoding="utf-8"?>
<!-- Generator: Adobe Illustrator 21.0.0, SVG Export Plug-In . SVG Version: 6.00 Build 0)  -->
<svg version="1.1" id="Capa_1" xmlns="http://www.w3.org/2000/svg" xmlns:xlink="http://www.w3.org/1999/xlink" x="0px" y="0px"
	 viewBox="0 0 50 47.7" style="enable-background:new 0 0 50 47.7;" xml:space="preserve">
<g>
	<g>
		<path d="M32.9,37.5C32.9,37.6,32.9,37.6,32.9,37.5L32.9,37.5z"/>
		<path d="M32.9,37.5c0,0,0.1-0.1,0.1-0.2C33,37.4,33,37.5,32.9,37.5z"/>
		<path d="M9.1,8.8V4.5H0v40.9c0,2.3,2.5,2.3,2.5,2.3h45.2c0,0,2.3,0,2.3-2.3V4.5h-9.1v4.3c0,1.4-1.5,2.6-3.4,2.6h-2.3
			c-1.9,0-3.4-1.1-3.4-2.6V4.5H18.2v4.3c0,1.4-1.5,2.6-3.4,2.6h-2.3C10.6,11.4,9.1,10.3,9.1,8.8z M20.5,40.9h-2.2V27.3h-4.6v-1.5
			c1.7-0.1,2.8-0.4,3.5-0.7c0.7-0.3,1.2-1.1,1.5-2.3h1.8L20.5,40.9L20.5,40.9z M35.4,37.6c-1,2.3-2.5,3.4-4.7,3.4
			c-2,0-3.4-0.9-4.4-2.8c-0.8-1.5-1.2-3.6-1.2-6.2c0-2,0.2-3.7,0.7-5.2c0.9-2.7,2.5-4,4.9-4c2.1,0,3.7,0.9,4.6,2.8
			c0.7,1.5,1.1,3.5,1.1,6C36.4,34,36,36,35.4,37.6z M45.5,13.7V16H4.6v-2.3H45.5z"/>
		<path d="M30.8,25c-1.2,0-2.1,0.6-2.6,1.8c-0.6,1.2-0.8,2.9-0.8,5.2c0,1.7,0.2,3.1,0.5,4.2c0.5,1.6,1.5,2.4,2.8,2.4
			c1.1,0,1.9-0.5,2.5-1.5s0.9-2.8,0.9-5.5c0-1.9-0.2-3.5-0.7-4.8C33,25.7,32.1,25,30.8,25z"/>
		<path d="M38.6,6.9V2.3c0-1.3-1-2.3-2.3-2.3S34,1,34,2.3v4.5c0,1.3,1,2.3,2.3,2.3C37.6,9.1,38.6,8.1,38.6,6.9z"/>
		<path d="M14.2,9.1c0.9,0,1.7-0.8,1.7-1.7V1.7c0-0.9-0.8-1.7-1.7-1.7h-1.1c-0.9,0-1.7,0.8-1.7,1.7v5.7c0,0.9,0.8,1.7,1.7,1.7H14.2z
			"/>
	</g>
</g>
</svg>
