<?xml version="1.0" encoding="utf-8"?>
<!-- Generator: Adobe Illustrator 21.0.0, SVG Export Plug-In . SVG Version: 6.00 Build 0)  -->
<svg version="1.1" id="Capa_1" xmlns="http://www.w3.org/2000/svg" xmlns:xlink="http://www.w3.org/1999/xlink" x="0px" y="0px"
	 viewBox="0 0 39.2 50" style="enable-background:new 0 0 39.2 50;" xml:space="preserve">
<g>
	<path d="M29.8,36.6L29.8,36.6c-0.1,0.1-0.2,0.2-0.2,0.3c-0.3,0.9-1.1,1.5-2.1,1.5s-1.8-0.6-2.1-1.5c0-0.1-0.1-0.2-0.2-0.2l0,0
		c-0.1,0-0.1-0.1-0.2-0.1l0,0V43l2.5-2.5L30,43v-6.5l0,0C29.9,36.5,29.9,36.6,29.8,36.6z"/>
	<path d="M27,0H0v50h39.2V12.2L27,0z M20.9,19.2h5.8c0.5,0,0.8,0.4,0.8,0.8s-0.4,0.8-0.8,0.8h-5.8c-0.5,0-0.8-0.4-0.8-0.8
		S20.4,19.2,20.9,19.2z M17.5,20c0,0.2-0.1,0.4-0.2,0.6c-0.2,0.2-0.4,0.3-0.6,0.3s-0.4-0.1-0.6-0.2c-0.2-0.2-0.2-0.4-0.2-0.6
		s0.1-0.4,0.2-0.6c0.3-0.3,0.9-0.3,1.2,0C17.4,19.6,17.5,19.8,17.5,20z M8.4,12.5h7.5c0.5,0,0.8,0.4,0.8,0.8s-0.4,0.8-0.8,0.8H8.4
		c-0.5,0-0.8-0.4-0.8-0.8S7.9,12.5,8.4,12.5z M8.4,19.2h4.2c0.5,0,0.8,0.4,0.8,0.8s-0.4,0.8-0.8,0.8H8.4c-0.5,0-0.8-0.4-0.8-0.8
		S7.9,19.2,8.4,19.2z M7.8,26.1c0.3-0.3,0.9-0.3,1.2,0c0.2,0.2,0.2,0.4,0.2,0.6S9.1,27.1,9,27.3c-0.2,0.2-0.4,0.2-0.6,0.2
		S8,27.4,7.8,27.3c-0.2-0.2-0.2-0.4-0.2-0.6C7.5,26.4,7.6,26.2,7.8,26.1z M9.9,39.8c0,0.8-0.9,1.1-1.4,0.6c-0.8-0.7-1.6-1.3-2.3-2
		c-0.8-0.7,0.4-1.9,1.2-1.2c0.3,0.3,0.7,0.6,1,0.9c0.2-1.9,0.8-3.7,2.7-4.7c1-0.5,1.8,0.9,0.8,1.4C10,35.9,9.9,38,9.9,39.8z
		 M17.3,38.5C17,38,15.8,39,15.4,39.1c-0.5,0.2-0.9,0.2-1.4,0.2c-1-0.1-1.8-0.7-2.2-1.6c-0.5-1,1-1.8,1.4-0.8
		c0.8,1.6,2.1,0.2,3.3-0.1c0.9-0.2,1.8,0.1,2.2,0.9C19.3,38.6,17.8,39.5,17.3,38.5z M18.4,27.5h-5.8c-0.5,0-0.8-0.4-0.8-0.8
		c0-0.5,0.4-0.8,0.8-0.8h5.8c0.5,0,0.8,0.4,0.8,0.8C19.2,27.1,18.8,27.5,18.4,27.5z M33.6,32.9c-0.2,0.1-0.3,0.2-0.3,0.3
		s-0.1,0.2,0,0.4c0.3,0.7,0.3,1.5-0.1,2.1c-0.3,0.5-0.9,0.9-1.4,1V47l-4.2-4.2L23.4,47V36.7c-0.6-0.1-1.1-0.5-1.4-1
		c-0.4-0.6-0.4-1.4-0.1-2.1c0.1-0.2,0-0.4,0-0.4c0-0.1-0.1-0.2-0.3-0.3c-0.9-0.3-1.5-1.1-1.5-2.1s0.6-1.8,1.5-2.1
		c0.2-0.1,0.3-0.2,0.3-0.3s0.1-0.2,0-0.4c-0.3-0.7-0.3-1.5,0.1-2.1c0.6-0.9,1.8-1.3,2.8-0.8c0.2,0.1,0.6,0,0.7-0.3
		c0.3-0.9,1.1-1.5,2.1-1.5s1.8,0.6,2.1,1.5c0.1,0.3,0.5,0.4,0.7,0.3c1-0.5,2.2-0.1,2.8,0.8c0.4,0.6,0.4,1.4,0.1,2.1
		c-0.1,0.2,0,0.4,0,0.4c0,0.1,0.1,0.2,0.3,0.3c0.9,0.3,1.5,1.1,1.5,2.1S34.4,32.6,33.6,32.9z M30,20c0-0.2,0.1-0.4,0.2-0.6
		c0.3-0.3,0.9-0.3,1.2,0c0.1,0.2,0.2,0.4,0.2,0.6s-0.1,0.4-0.2,0.6c-0.2,0.2-0.4,0.2-0.6,0.2s-0.4-0.1-0.6-0.2
		C30.1,20.4,30,20.2,30,20z M25,12.5V0.8l11.7,11.7H25z"/>
	<path d="M33,30.3c-0.6-0.2-1.1-0.7-1.3-1.2c-0.2-0.6-0.2-1.2,0-1.8c0.1-0.2,0-0.4,0-0.5c-0.1-0.2-0.4-0.3-0.7-0.2
		c-0.3,0.1-0.6,0.2-0.9,0.2c-0.9,0-1.8-0.6-2.1-1.5C27.9,25,27.6,25,27.5,25s-0.4,0-0.5,0.4c-0.3,0.9-1.1,1.5-2.1,1.5
		c-0.3,0-0.6-0.1-0.9-0.2c-0.3-0.1-0.5,0-0.7,0.2c-0.1,0.1-0.1,0.3,0,0.5c0.3,0.6,0.3,1.2,0,1.8c-0.2,0.6-0.7,1-1.3,1.2
		c-0.3,0.1-0.4,0.4-0.4,0.5s0,0.4,0.4,0.5c0.6,0.2,1.1,0.7,1.3,1.2c0.2,0.6,0.2,1.2,0,1.8c-0.1,0.2,0,0.4,0,0.5
		c0.1,0.2,0.3,0.3,0.6,0.2l0.2-0.1c0.2-0.1,0.5-0.2,0.9-0.2c0.9,0,1.8,0.6,2.1,1.5c0.1,0.3,0.4,0.4,0.5,0.4s0.4,0,0.5-0.4
		c0.3-0.9,1.1-1.5,2.1-1.5c0.2,0,0.3,0,0.5,0.1h0.1c0.1,0,0.2,0.1,0.3,0.1l0.2,0.1c0.2,0,0.4-0.1,0.5-0.2c0.1-0.1,0.1-0.3,0-0.5
		c-0.3-0.6-0.3-1.2,0-1.8c0.2-0.6,0.7-1,1.3-1.2c0.3-0.1,0.4-0.4,0.4-0.5S33.3,30.4,33,30.3z"/>
</g>
</svg>
