<svg xmlns="http://www.w3.org/2000/svg" width="18" height="15" viewBox="0 0 18 15">
  <metadata><?xpacket begin="﻿" id="W5M0MpCehiHzreSzNTczkc9d"?>
<x:xmpmeta xmlns:x="adobe:ns:meta/" x:xmptk="Adobe XMP Core 5.6-c138 79.159824, 2016/09/14-01:09:01        ">
   <rdf:RDF xmlns:rdf="http://www.w3.org/1999/02/22-rdf-syntax-ns#">
      <rdf:Description rdf:about=""/>
   </rdf:RDF>
</x:xmpmeta>
                                                                                                    
                                                                                                    
                                                                                                    
                                                                                                    
                                                                                                    
                                                                                                    
                                                                                                    
                                                                                                    
                                                                                                    
                                                                                                    
                                                                                                    
                                                                                                    
                                                                                                    
                                                                                                    
                                                                                                    
                                                                                                    
                                                                                                    
                                                                                                    
                                                                                                    
                                                                                                    
                           
<?xpacket end="w"?></metadata>
<defs>
    <style>
      .cls-1 {
        fill: #9fa3a7;
        fill-rule: evenodd;
      }
    </style>
  </defs>
  <path id="Icon" class="cls-1" d="M1126.73,6864.62c0.23,0.17.91,0.68,2.06,1.52s2.02,1.49,2.63,1.95c0.07,0.04.21,0.15,0.43,0.32s0.39,0.3.54,0.41,0.32,0.21.52,0.34a3.134,3.134,0,0,0,.58.29,1.606,1.606,0,0,0,.5.09h0.02a1.606,1.606,0,0,0,.5-0.09,3.134,3.134,0,0,0,.58-0.29c0.2-.13.38-0.24,0.52-0.34s0.33-.24.54-0.41,0.36-.28.43-0.32c0.62-.46,2.18-1.61,4.7-3.47a4.949,4.949,0,0,0,1.23-1.31,2.919,2.919,0,0,0,.49-1.61,1.66,1.66,0,0,0-.48-1.2,1.483,1.483,0,0,0-1.13-.5h-14.78a1.38,1.38,0,0,0-1.19.55,2.231,2.231,0,0,0-.42,1.39,2.56,2.56,0,0,0,.55,1.45A5.161,5.161,0,0,0,1126.73,6864.62Zm15.27,1.14c-2.2,1.58-3.87,2.8-5.01,3.68-0.38.3-.69,0.53-0.93,0.7a6.108,6.108,0,0,1-.95.51,2.786,2.786,0,0,1-1.1.26h-0.02a2.87,2.87,0,0,1-1.11-.26,6.431,6.431,0,0,1-.94-0.51c-0.24-.17-0.55-0.4-0.93-0.7-0.91-.7-2.57-1.93-5-3.68a5.558,5.558,0,0,1-1.01-.92v8.46a1.71,1.71,0,0,0,.47,1.2,1.54,1.54,0,0,0,1.14.5h14.78a1.54,1.54,0,0,0,1.14-.5,1.71,1.71,0,0,0,.47-1.2v-8.46A5.494,5.494,0,0,1,1142,6865.76Z" transform="translate(-1125 -6860)"/>
</svg>
