<?xml version="1.0" encoding="utf-8"?>
<!-- Generator: Adobe Illustrator 21.0.0, SVG Export Plug-In . SVG Version: 6.00 Build 0)  -->
<svg version="1.1" id="Capa_1" xmlns="http://www.w3.org/2000/svg" xmlns:xlink="http://www.w3.org/1999/xlink" x="0px" y="0px"
	 viewBox="0 0 50 49.9" style="enable-background:new 0 0 50 49.9;" xml:space="preserve">
<g>
	<g>
		<path d="M22.5,28.1c1-0.7,1.9-1.5,2.7-2.4l2.9,1.8l2.6-4.8l-2.9-1.8c0.4-1.2,0.6-2.4,0.6-3.7l3.2-0.6l-0.9-5.5l-3.2,0.6
			c-0.4-1.2-1-2.3-1.8-3.3l2.1-2.7l-4-3.6l-2.1,2.7c-1-0.6-2.2-1-3.3-1.3V0h-5.2v3.5C12,3.8,10.9,4.2,9.9,4.8L7.8,2.1l-4,3.6
			l2.1,2.7c-0.7,1-1.3,2.1-1.8,3.3l-3.2-0.6L0,16.6l3.2,0.6c0,1.3,0.3,2.6,0.6,3.7l-2.9,1.8l2.6,4.8l2.9-1.8
			c0.8,0.9,1.7,1.8,2.7,2.4L8,31.4l4.9,1.9L14,30c0.6,0.1,1.2,0.1,1.8,0.1s1.2,0,1.8-0.1l1.1,3.3l4.9-1.9L22.5,28.1z M15.8,23.7
			c-3.7,0-6.6-3.2-6.6-7.1c0-3.9,3-7.1,6.6-7.1c3.7,0,6.6,3.2,6.6,7.1C22.4,20.6,19.5,23.7,15.8,23.7z"/>
		<path d="M44.8,32.3l-2.2,0.8c-0.4-0.8-1-1.5-1.6-2.1l1.3-2.1l-3.2-2.1l-1.3,2.1c-0.8-0.3-1.6-0.5-2.5-0.6L35,25.8l-3.7,0.5
			l0.3,2.5c-0.8,0.3-1.6,0.7-2.2,1.3l-1.8-1.7l-2.5,3l1.8,1.7c-0.4,0.8-0.7,1.6-1,2.5l-2.4-0.1l-0.1,4l2.4,0.1
			c0.1,0.9,0.4,1.8,0.8,2.6l-1.9,1.5l2.3,3.1l1.9-1.6c0.6,0.6,1.4,1.1,2.2,1.4l-0.5,2.5l3.6,0.8l0.5-2.5c0.4,0,0.8,0,1.3-0.1
			c0.4-0.1,0.8-0.2,1.2-0.3l1.1,2.2l3.3-1.9l-1.1-2.2c0.7-0.6,1.2-1.3,1.7-2l2.2,0.9l1.4-3.7l-2.2-0.9c0.1-0.9,0.2-1.8,0.1-2.7
			l2.2-0.8L44.8,32.3z M35.4,42.9c-2.6,0.4-5-1.6-5.4-4.3c-0.4-2.8,1.5-5.3,4.1-5.7s5,1.6,5.4,4.3C39.8,39.9,38,42.5,35.4,42.9z"/>
		<path d="M49.9,18.5l0.1-3.1l-1.9-0.1c-0.1-0.7-0.3-1.4-0.6-2l1.5-1.2l-1.8-2.5l-1.5,1.2c-0.5-0.5-1.1-0.8-1.7-1.1l0.4-1.9
			l-2.9-0.6l-0.4,1.9c-0.7,0-1.3,0.1-2,0.3l-0.9-1.8l-2.6,1.5l0.9,1.8c-0.5,0.5-1,1-1.3,1.6l-1.7-0.7l-1.1,2.9l1.7,0.7
			C34,16.1,34,16.8,34,17.5l-1.8,0.6l0.9,3l1.8-0.6c0.3,0.6,0.8,1.2,1.2,1.7l-1,1.7l2.5,1.7l1-1.7c0.6,0.2,1.3,0.4,2,0.4l0.3,2
			l2.9-0.5l-0.3-2c0.3-0.1,0.6-0.3,0.9-0.4c0.3-0.2,0.6-0.4,0.9-0.6l1.4,1.3l2-2.3l-1.4-1.3c0.3-0.6,0.6-1.3,0.7-2L49.9,18.5z
			 M42.8,20.1c-1.8,1-4.1,0.3-5.1-1.6c-1-1.9-0.3-4.4,1.5-5.4s4.1-0.3,5.1,1.6C45.4,16.7,44.7,19.1,42.8,20.1z"/>
	</g>
</g>
</svg>
