<?xml version="1.0" encoding="utf-8"?>
<!-- Generator: Adobe Illustrator 21.0.0, SVG Export Plug-In . SVG Version: 6.00 Build 0)  -->
<svg version="1.1" id="Layer_1" xmlns="http://www.w3.org/2000/svg" xmlns:xlink="http://www.w3.org/1999/xlink" x="0px" y="0px"
	 viewBox="0 0 49 49" style="enable-background:new 0 0 49 49;" xml:space="preserve">
<g>
	<path d="M24.5,11.7c3.2,0,5.9-2.6,5.9-5.9S27.7,0,24.5,0s-5.9,2.6-5.9,5.9S21.3,11.7,24.5,11.7z"/>
	<path d="M25.7,13.6c-0.1-0.1-0.3-0.2-0.5-0.2h-1.4c-0.2,0-0.4,0.1-0.5,0.2c-0.2,0.2-0.2,0.5-0.1,0.8l0.8,1.2l-0.4,3l0.7,1.9
		c0.1,0.2,0.3,0.2,0.4,0l0.7-1.9l-0.4-3l0.8-1.2C26,14.2,25.9,13.8,25.7,13.6L25.7,13.6z"/>
	<path d="M15.5,27.1h18c0.5,0,0.8-0.4,0.8-0.8v-7.5c0-2.2-1.4-4.1-3.5-4.8l-1.6-0.5c-0.3-0.1-0.6,0.1-0.7,0.4l-3.9,10.8l-3.9-10.8
		c-0.1-0.2-0.3-0.4-0.6-0.4c-0.1,0-0.1,0-0.2,0L18.2,14c-2.1,0.7-3.5,2.7-3.5,4.8v7.5C14.6,26.8,15,27.1,15.5,27.1L15.5,27.1z"/>
	<path d="M5.7,14.7c3.2,0,5.9-2.6,5.9-5.9C11.6,5.6,9,3,5.7,3s-5.9,2.6-5.9,5.9C-0.1,12.1,2.5,14.7,5.7,14.7z"/>
	<path d="M15.7,30.8h-4.7v-9.2c0-2.9-2.4-5.3-5.3-5.3s-5.3,2.4-5.3,5.3v12.5c0,2.8,2.3,5.1,5.1,5.1h6.1v8.3c0,0.8,0.6,1.4,1.4,1.4
		h5.6c0.8,0,1.4-0.6,1.4-1.4V35.2C20.1,32.8,18.1,30.8,15.7,30.8z"/>
	<path d="M43.3,14.7c3.2,0,5.9-2.6,5.9-5.9c0-3.2-2.6-5.9-5.9-5.9c-3.2,0-5.9,2.6-5.9,5.9C37.4,12.1,40,14.7,43.3,14.7z"/>
	<path d="M43.3,16.3c-2.9,0-5.3,2.4-5.3,5.3v9.2h-4.7c-2.4,0-4.3,1.9-4.3,4.3v12.4c0,0.8,0.6,1.4,1.4,1.4H36c0.8,0,1.4-0.6,1.4-1.4
		v-8.3h6.1c2.8,0,5.1-2.3,5.1-5.1V21.6C48.6,18.7,46.2,16.3,43.3,16.3L43.3,16.3z"/>
</g>
</svg>
