<?xml version="1.0" encoding="utf-8"?>
<!-- Generator: Adobe Illustrator 21.0.0, SVG Export Plug-In . SVG Version: 6.00 Build 0)  -->
<svg version="1.1" id="Capa_1" xmlns="http://www.w3.org/2000/svg" xmlns:xlink="http://www.w3.org/1999/xlink" x="0px" y="0px"
	 viewBox="0 0 59.3 50" style="enable-background:new 0 0 59.3 50;" xml:space="preserve">
<g>
	<g>
		<path d="M38,24.3c-4.5-7.8-4.3-17,0-24.3c-4.2,0-8.4,1-12.3,3.2C17.3,8,12.9,16.9,13.4,25.9c2,0.1,3.9,0.8,5.3,2
			c1.4-0.8,3-1.2,4.6-1.2c4.4,0,8.2,2.9,9.4,7c3.1,0.9,5.3,3.8,5.3,7.1c0,3.5-2.5,6.4-5.7,7.2c5.8,1.3,12.2,0.6,17.8-2.6
			c3.9-2.2,6.9-5.3,9-8.9C50.8,36.4,42.6,32.1,38,24.3z"/>
		<path d="M36.2,40.8c0-2.8-2.1-5.1-5-5.4c-0.5-3.8-3.7-6.7-7.6-6.7c-1.9,0-3.6,0.7-5,1.8c-1.3-1.6-3.2-2.6-5.5-2.6
			c-3.3,0-6.1,2.3-6.8,5.3C2.8,33.4,0,36.4,0,40c0,3.8,3.1,6.8,6.9,6.8c0.8,0,1.5-0.2,2.3-0.4c1.3,1.7,3.3,2.8,5.6,2.8
			c1.4,0,2.7-0.4,3.8-1.1c1.2,1.2,3,1.9,4.9,1.9c2.7,0,5.1-1.6,6.2-3.9c0.4,0.1,0.7,0.1,1.1,0.1C33.7,46.2,36.2,43.8,36.2,40.8z"/>
		<polygon points="51.2,27.3 52.2,25.2 54.5,24.8 52.8,23.2 53.1,20.9 51.1,22 48.9,21 49.4,23.3 47.7,25 50.1,25.2 		"/>
		<polygon points="3.9,21.6 5.6,20.7 7.2,21.6 7,19.8 8.3,18.5 6.5,18.2 5.7,16.5 4.7,18.2 3,18.4 4.3,19.7 		"/>
		<polygon points="42.2,17.4 43,18.8 43.6,17.4 45.2,17.1 44.1,16 44.3,14.4 42.9,15.2 41.3,14.5 41.7,16.1 40.5,17.2 		"/>
		<polygon points="49.9,13.2 50.3,14.1 50.8,13.2 51.8,13 51.1,12.3 51.2,11.3 50.3,11.8 49.4,11.4 49.6,12.4 48.9,13.1 		"/>
		<polygon points="14.4,7.3 14.8,8.2 15.3,7.3 16.3,7.1 15.6,6.5 15.7,5.5 14.8,6 13.9,5.5 14.1,6.5 13.4,7.2 		"/>
	</g>
</g>
</svg>
