<?xml version="1.0" encoding="utf-8"?>
<!-- Generator: Adobe Illustrator 21.0.0, SVG Export Plug-In . SVG Version: 6.00 Build 0)  -->
<svg version="1.1" id="Capa_1" xmlns="http://www.w3.org/2000/svg" xmlns:xlink="http://www.w3.org/1999/xlink" x="0px" y="0px"
	 viewBox="0 0 49 49" style="enable-background:new 0 0 49 49;" xml:space="preserve">
<g>
	<g>
		<g>
			<circle cx="24.5" cy="24.5" r="4.2"/>
			<path d="M48,20.3l-5.9-1.1c-0.4-1.2-0.8-2.3-1.4-3.4l3.4-5c0.3-0.5,0.3-1.2-0.1-1.6L39.8,5c-0.4-0.4-1.1-0.5-1.6-0.1l-5,3.4
				c-1.1-0.6-2.3-1.1-3.5-1.4L28.6,1c-0.1-0.6-0.6-1-1.2-1h-6c-0.6,0-1.1,0.4-1.2,1l-1.1,5.9c-1.2,0.4-2.3,0.8-3.4,1.4L10.8,5
				c-0.5-0.3-1.2-0.3-1.6,0.1L5,9.3c-0.4,0.4-0.5,1.1-0.1,1.6l3.4,5c-0.6,1.1-1,2.2-1.4,3.4L1,20.3c-0.5,0.1-1,0.6-1,1.2v6
				c0,0.6,0.4,1.1,1,1.2l5.9,1.1c0.4,1.2,0.8,2.4,1.4,3.4L5,38.1c-0.3,0.5-0.3,1.2,0.1,1.6l4.2,4.2c0.4,0.4,1.1,0.5,1.6,0.1l4.9-3.4
				c1.1,0.6,2.2,1,3.3,1.4l1.1,5.9c0.1,0.6,0.6,1,1.2,1h6c0.6,0,1.1-0.4,1.2-1l1.1-5.9c1.2-0.4,2.4-0.8,3.5-1.4l5,3.4
				c0.5,0.3,1.2,0.3,1.6-0.1l4.2-4.2c0.4-0.4,0.5-1.1,0.1-1.6l-3.4-4.9c0.6-1.1,1.1-2.3,1.4-3.5l5.9-1.1c0.5-0.1,1-0.6,1-1.2v-6
				C49,21,48.6,20.4,48,20.3z M24.5,34.7c-5.6,0-10.2-4.6-10.2-10.2c0-5.6,4.6-10.2,10.2-10.2c5.6,0,10.2,4.6,10.2,10.2
				C34.7,30.1,30.1,34.7,24.5,34.7z"/>
		</g>
	</g>
</g>
</svg>
