<?xml version="1.0" encoding="utf-8"?>
<!-- Generator: Adobe Illustrator 21.0.0, SVG Export Plug-In . SVG Version: 6.00 Build 0)  -->
<svg version="1.1" id="Layer_1" xmlns="http://www.w3.org/2000/svg" xmlns:xlink="http://www.w3.org/1999/xlink" x="0px" y="0px"
	 viewBox="0 0 17 17" style="enable-background:new 0 0 17 17;" xml:space="preserve">
<style type="text/css">
	.st0{fill:#9FA3A7;}
</style>
<path class="st0" d="M8.5,0c-3,0-6.1,0.5-7.2,1.6C0.4,2.5,0.1,4.1,0,5.1c0,0,0,0.1,0,0.1C0,5.6,0.3,6,0.7,6c0,0,1.7-0.1,2.8-0.2
	c0,0,0,0,0.1,0c0.4,0,0.7-0.3,0.7-0.7l0-1.4c0-0.4,0.4-0.8,0.8-0.8H12c0.4,0,0.8,0.3,0.8,0.8l0,1.4c0,0.4,0.3,0.7,0.7,0.7
	c0,0,0,0,0.1,0c1,0.1,2.7,0.2,2.8,0.2C16.7,6,17,5.6,17,5.2c0,0,0-0.1,0-0.1c-0.1-1-0.4-2.6-1.3-3.5C14.6,0.5,11.5,0,8.5,0z
	 M8.5,9.2c-0.8,0-1.4,0.6-1.4,1.4c0,0.8,0.6,1.4,1.4,1.4s1.4-0.6,1.4-1.4C9.9,9.8,9.3,9.2,8.5,9.2z M7.4,6V5.1
	c0-0.5-0.4-0.9-0.9-0.9S5.7,4.6,5.7,5.1V6l-4.8,5.1c-0.3,0.3-0.5,0.8-0.5,1.3v1.4c0,0.8,0.6,1.4,1.4,1.4h0.4v0.9
	C2.1,16.6,2.5,17,3,17s0.9-0.4,0.9-0.9v-0.9h9.2v0.9c0,0.5,0.4,0.9,0.9,0.9c0.5,0,0.9-0.4,0.9-0.9v-0.9h0.4c0.8,0,1.4-0.6,1.4-1.4
	v-1.4c0-0.5-0.2-0.9-0.5-1.3L11.3,6V5.1c0-0.5-0.4-0.9-0.9-0.9c-0.5,0-0.9,0.4-0.9,0.9V6H7.4z M8.5,7.8c1.6,0,2.8,1.3,2.8,2.8
	c0,1.6-1.3,2.8-2.8,2.8c-1.6,0-2.8-1.3-2.8-2.8C5.7,9.1,6.9,7.8,8.5,7.8z"/>
</svg>
