<?xml version="1.0" encoding="utf-8"?>
<!-- Generator: Adobe Illustrator 21.0.0, SVG Export Plug-In . SVG Version: 6.00 Build 0)  -->
<svg version="1.1" id="Layer_1" xmlns="http://www.w3.org/2000/svg" xmlns:xlink="http://www.w3.org/1999/xlink" x="0px" y="0px"
	 viewBox="0 0 50 49.9" style="enable-background:new 0 0 50 49.9;" xml:space="preserve">
<g>
	<g>
		<path d="M38.9,17.5c-6.2,0-11.2,5-11.2,11.2c0,4.5,2.7,8.4,6.5,10.2c0.1,0.2,0.1,0.4,0.2,0.6H12.8V29.4c0.9-2,2.3-5.1,3.1-8
			c3.8-1.8,6.5-5.7,6.5-10.2C22.4,5,17.4,0,11.2,0S0,5,0,11.2c0,4.5,2.7,8.4,6.5,10.2c0.8,2.8,2.2,6,3.1,7.9v13.2h25.8
			c1.2,3,2.5,5.6,2.7,6.1l0.7,1.3l0.7-1.3c0.4-0.7,2.8-5.6,4-9.8C47.3,37,50,33.1,50,28.6C50.1,22.5,45.1,17.5,38.9,17.5z M7.6,11.2
			c0-2.1,1.7-3.7,3.7-3.7c2.1,0,3.7,1.7,3.7,3.7c0,2.1-1.7,3.7-3.7,3.7C9.2,15,7.6,13.3,7.6,11.2z M38.9,32.4
			c-2.1,0-3.7-1.7-3.7-3.7c0-2.1,1.7-3.7,3.7-3.7s3.7,1.7,3.7,3.7C42.6,30.8,41,32.4,38.9,32.4z"/>
	</g>
</g>
</svg>
