<?xml version="1.0" encoding="utf-8"?>
<!-- Generator: Adobe Illustrator 21.0.0, SVG Export Plug-In . SVG Version: 6.00 Build 0)  -->
<svg version="1.1" id="Capa_1" xmlns="http://www.w3.org/2000/svg" xmlns:xlink="http://www.w3.org/1999/xlink" x="0px" y="0px"
	 viewBox="0 0 43.7 45" style="enable-background:new 0 0 43.7 45;" xml:space="preserve">
<g>
	<g>
		<polygon points="25.1,2.8 25.1,9.2 31.4,9.2 		"/>
		<path d="M19.8,41.1l3.7-12.2l10.7-10.7v-6.6l0,0H23.9c-0.6,0-1.2-0.5-1.2-1.2V0l0,0h-23v45h34.6v-9.8l-3.6,3.6L19.8,41.1z
			 M4.9,6.6h14.4c0.6,0,1.2,0.5,1.2,1.2S20,9,19.4,9H4.9C4.3,9,3.8,8.5,3.8,7.8S4.3,6.6,4.9,6.6z M4.9,13.7h14.4
			c0.6,0,1.2,0.5,1.2,1.2s-0.5,1.2-1.2,1.2H4.9c-0.6,0-1.2-0.5-1.2-1.2C3.8,14.3,4.3,13.7,4.9,13.7z M4.9,23.1
			c-0.6,0-1.2-0.5-1.2-1.2c0-0.6,0.5-1.2,1.2-1.2h14.4c0.6,0,1.2,0.5,1.2,1.2c0,0.6-0.5,1.2-1.2,1.2H4.9z"/>
		<polygon points="38.5,17.2 26.4,29.3 31.6,34.5 31.6,34.5 43.7,22.4 		"/>
		<polygon points="29.5,35.7 25.2,31.4 23.3,37.6 		"/>
	</g>
</g>
</svg>
