<?xml version="1.0" encoding="utf-8"?>
<!-- Generator: Adobe Illustrator 21.0.0, SVG Export Plug-In . SVG Version: 6.00 Build 0)  -->
<svg version="1.1" id="Capa_1" xmlns="http://www.w3.org/2000/svg" xmlns:xlink="http://www.w3.org/1999/xlink" x="0px" y="0px"
	 viewBox="0 0 50 50.1" style="enable-background:new 0 0 50 50.1;" xml:space="preserve">
<g>
	<g id="Layer_1_155_">
		<g>
			<path d="M27.9,8.9H10.8c-1.2,0-2.3,1-2.3,2.3s1,2.3,2.3,2.3h17.1c1.3,0,2.3-1,2.3-2.3C30.1,9.9,29.1,8.9,27.9,8.9z"/>
			<path d="M30.1,19.7c0-1.3-1-2.3-2.3-2.3h-17c-1.3,0-2.3,1-2.3,2.3s1,2.3,2.3,2.3h17.1C29.1,22,30.1,21,30.1,19.7z"/>
			<path d="M19.3,30.5c1.3,0,2.3-1,2.3-2.3s-1-2.3-2.3-2.3h-8.5c-1.3,0-2.3,1-2.3,2.3s1,2.3,2.3,2.3H19.3z"/>
			<path d="M36.5,38.2l-2.4,1.6v5.7H4.6v-41h29.6v9l4.6-7.9V2.3c0-1.3-1-2.3-2.3-2.3H2.3C1,0,0,1,0,2.3v45.5c0,1.3,1,2.3,2.3,2.3
				h34.1c1.3,0,2.3-1,2.3-2.3V35.2l-1.1,1.9C37.3,37.5,37,37.9,36.5,38.2z"/>
			<path d="M50,10.5c0-0.2-0.5-2-3.4-3.7s-4.7-1.2-4.9-1.1c-0.3,0.1-0.5,0.3-0.6,0.5L26.8,30.8c-0.1,0.2-0.1,0.3-0.2,0.5l-0.5,8.9
				c0,0.4,0.2,0.8,0.6,1.1c0.4,0.2,0.8,0.2,1.2,0l7.4-4.9c0.1-0.1,0.3-0.2,0.4-0.4l14.1-24.7C50,11.1,50,10.8,50,10.5z M30.7,37.3
				c-0.4-0.3-0.8-0.6-1.3-0.9c-0.5-0.3-0.9-0.5-1.4-0.7l0.2-2.7c0.6,0.1,1.5,0.3,2.6,1c1.1,0.6,1.8,1.3,2.1,1.8L30.7,37.3z"/>
			<path d="M15.9,41c0.1,0.5,0.6,0.6,1,0.7c0.3,0.1,0.7-0.1,1-0.3c1.7-0.8,4.1,0.1,5.9,0.1c1.1,0,1.1-1.7,0-1.7
				c-2.2,0-4-0.5-6.1-0.2c0-0.1,0-0.3-0.2-0.5c-0.4-0.7-0.9-0.9-1.4-0.8c0-0.1-0.1-0.2-0.1-0.2c-0.1-0.2-0.3-0.3-0.5-0.4
				c0.6-1,1-2.2,0.6-3c-0.1-0.3-0.5-0.4-0.7-0.4c-1.1,0-2.1,1.2-2.9,1.9c-1.8,1.8-3.4,3.8-5,5.9C6.8,43,8.3,43.8,9,43
				c1.4-1.8,2.9-3.5,4.4-5.2c-0.4,0.6-0.8,1.2-1.2,1.8c-0.6,0.9,0.8,1.7,1.5,0.9c0.2-0.2,0.3-0.4,0.5-0.5c0,0.1-0.1,0.2-0.1,0.3l0,0
				c0,0.1-0.1,0.1-0.1,0.2c-0.4,1,1,1.4,1.6,0.7c0.1-0.2,0.3-0.4,0.4-0.6C15.8,40.6,15.8,40.8,15.9,41z"/>
		</g>
	</g>
</g>
</svg>
