<?xml version="1.0" encoding="utf-8"?>
<!-- Generator: Adobe Illustrator 21.0.0, SVG Export Plug-In . SVG Version: 6.00 Build 0)  -->
<svg version="1.1" id="Capa_1" xmlns="http://www.w3.org/2000/svg" xmlns:xlink="http://www.w3.org/1999/xlink" x="0px" y="0px"
	 viewBox="0 0 49 35" style="enable-background:new 0 0 49 35;" xml:space="preserve">
<g>
	<path d="M50,29.4V13.6c0-0.2,0-0.4-0.1-0.6c0.1,0,0.2,0,0.3-0.1C48.9,5.5,42.7,0,35.3,0C27,0,20.2,7.1,20.2,15.8v2.9v8.5H-0.4v-2.5
		c0-0.3-0.2-0.5-0.5-0.5c-0.3,0-0.5,0.2-0.5,0.5v9.8c0,0.2,0.2,0.4,0.4,0.5v0H25c0.1,0,0.2,0,0.3,0h20.1c2.8,0,5.1-2.3,5.1-5.1v-0.5
		C50.3,29.4,50.1,29.4,50,29.4z M-0.1,34v-5.7h1.8v2.8h0.3v-2.8h0.6v1.6H3v-1.6h0.8v1.6h0.3v-1.6h0.8v1.6h0.3v-1.6H6v1.6h0.3v-1.6H7
		v2.8h0.3v-2.8H8v1.6h0.3v-1.6h0.8v1.6h0.3v-1.6h0.8v1.6h0.3v-1.6h0.8v1.6h0.3v-1.6h0.8v2.8h0.3v-2.8h0.6v1.6h0.3v-1.6h0.8v1.6h0.3
		v-1.6h0.8v1.6H16v-1.6h0.8v1.6h0.3v-1.6h0.6v2.8h0.3v-2.8h2.1v1.7c0,1.7,0.8,3.1,2,4.1L-0.1,34L-0.1,34z M34.9,9.2
		c3.5,0,6.4,2.8,6.4,6.4c0,3.5-2.9,6.4-6.4,6.4s-6.4-2.8-6.4-6.4C28.6,12,31.4,9.2,34.9,9.2z M25.9,30.4h-0.7v-2.1h0.7V30.4z
		 M44.4,30.4H26.9v-2.9h17.4V30.4z M40,3.5l0.7-1.6c0.2,0.1,5.7,2.7,7.2,7.4l-1.7,0.5C45,5.8,40,3.5,40,3.5z M49.2,29.1
		c-1.3-0.7-2.4-2.4-3-4.7v-6.6c0.5-2.2,1.6-3.9,2.9-4.6c0,0.1,0.1,0.2,0.1,0.4V29.1z M47.7,18.1c-0.7,0-1.1,1.5-1.1,2.9
		c0,1.4,0.4,2.9,1.1,2.9c0.7,0,1.1-1.5,1.1-2.9C48.8,19.6,48.4,18.1,47.7,18.1z M47.7,23.7c-0.4,0-0.8-1.1-0.8-2.7
		c0-1.6,0.4-2.7,0.8-2.7c0.4,0,0.8,1.1,0.8,2.7C48.6,22.6,48.1,23.7,47.7,23.7z M47.8,19c0,0,0.3,0.3,0.4,1.3l-0.3,0
		c-0.1-0.9-0.3-1.1-0.3-1.1L47.8,19z M32.3,15.5c0-1.4,1.2-2.6,2.6-2.6c1.4,0,2.6,1.2,2.6,2.6c0,1.4-1.2,2.6-2.6,2.6
		C33.5,18.1,32.3,17,32.3,15.5z"/>
</g>
</svg>
