<?xml version="1.0" encoding="utf-8"?>
<!-- Generator: Adobe Illustrator 21.0.0, SVG Export Plug-In . SVG Version: 6.00 Build 0)  -->
<svg version="1.1" id="Capa_1" xmlns="http://www.w3.org/2000/svg" xmlns:xlink="http://www.w3.org/1999/xlink" x="0px" y="0px"
	 viewBox="0 0 47 47" style="enable-background:new 0 0 47 47;" xml:space="preserve">
<g>
	<path d="M19.9,24.8c0,1.3-1.1,2.4-2.4,2.4c-1.3,0-2.4-1.1-2.4-2.4c0-1.3,1.1-2.4,2.4-2.4C18.8,22.4,19.9,23.5,19.9,24.8z
		 M29.5,22.4c-1.3,0-2.4,1.1-2.4,2.4s1.1,2.4,2.4,2.4c1.3,0,2.4-1.1,2.4-2.4C31.8,23.5,30.8,22.4,29.5,22.4z M39.5,32v-0.3
		c-0.3,0.8-0.6,1.5-0.9,2.3c0.1,0.4,0.2,1.1,0.4,1.8c1,1.5,3.7,3.4,5.6,3.9c-1,0.4-2.2,0.6-3.4,0.4c1.1,1.4,2.6,2.6,4.8,3.3
		c-5,4.5-13.3,4.6-19.1,1.1c-1.1,0.3-2.2,0.5-3.3,0.5c-1,0-2.1-0.2-3.3-0.5C14.4,48,6.2,47.9,1.1,43.4c2.2-0.8,3.7-2,4.8-3.4
		c-1,0-1.9-0.1-2.7-0.5c1.4-0.4,3.2-1.5,4.5-2.6c0.4-1.2,0.7-2.2,0.8-2.9c-0.3-0.7-0.7-1.5-0.9-2.3V32H4.6c-2.2,0-4.1-1.8-4.1-4.1
		v-4.5c0-1.5,0.9-2.9,2.1-3.6c0-6.4,1.9-11.3,5.5-14.7C11.8,1.7,16.9,0,23.5,0c6.6,0,11.7,1.7,15.3,5.1c3.6,3.4,5.5,8.4,5.5,14.7
		c1.3,0.7,2.1,2,2.1,3.6v4.5c0,2.2-1.8,4.1-4.1,4.1L39.5,32L39.5,32z M37.8,24.8c0-1-0.1-2-0.1-3c-1.8-1.7-5.2-2.9-9.4-3.4
		c0.7,0.6,1.2,1.4,1.6,2.6c-2.5-1.8-7.6-2.4-9.3-4.3l0,0c-2.7-1.8-3.4-4.4-3.5-3.3c-0.1,5.1-3.7,9.1-7.8,9.7c0,0.6,0,1.1,0,1.7
		c0,2.2,0.4,4.1,1,5.9c2.3,2.7,6,3.5,9.3,3.7c0.6-1,2-1.7,3.6-1.7c2.2,0,4,1.3,4,2.8c0,1.5-1.8,2.8-4,2.8c-1.7,0-3.1-0.7-3.7-1.8
		c-2.3-0.1-4.9-0.5-7.1-1.6c3.2,4.7,8.1,7.2,11.2,7.2C28.4,42.2,37.8,36,37.8,24.8z M40.3,19.4h1.6C41.6,8.3,35.3,2.4,23.5,2.4
		S5.4,8.3,5.2,19.4h1.6c0.6-3.7,1.8-6.8,3.6-9.2c2.9-3.8,7.4-5.7,13.2-5.7s10.2,1.9,13.2,5.7C38.5,12.6,39.7,15.6,40.3,19.4z"/>
</g>
</svg>
